<?xml version="1.0" encoding="UTF-8"?>
<svg width="800px" height="800px" viewBox="0 0 24 24" version="1.1" xmlns="http://www.w3.org/2000/svg" xmlns:xlink="http://www.w3.org/1999/xlink">
    <title>飞机图标</title>
    <g stroke="none" stroke-width="1" fill="none" fill-rule="evenodd">
        <path d="M21.5,15.5 C22.3284271,15.5 23,16.1715729 23,17 C23,17.7796961 22.4139976,18.4204487 21.6581879,18.4931914 L21.5,18.5 L4,18.5 L4,21 C4,21.5522847 3.55228475,22 3,22 C2.48716416,22 2.06449284,21.6139598 2.00672773,21.1166211 L2,21 L2,10 C2,9.44771525 2.44771525,9 3,9 C3.51283584,9 3.93550716,9.38604019 3.99327227,9.88337887 L4,10 L4,12.5 L21.5,12.5 C22.3284271,12.5 23,13.1715729 23,14 C23,14.7796961 22.4139976,15.4204487 21.6581879,15.4931914 L21.5,15.5 Z M14.6,2.52 C15.6,1.86 17,2.56 17,3.75 L17,8.5 L21.5,8.5 C22.3284271,8.5 23,9.17157288 23,10 C23,10.7796961 22.4139976,11.4204487 21.6581879,11.4931914 L21.5,11.5 L4,11.5 L4,8.5 L10.84,8.5 L8.3,5.25 C7.6,4.34 8.24,3 9.4,3 L12.5,3 L14.6,2.52 Z" fill="#409EFF" fill-rule="nonzero"></path>
    </g>
</svg> 